<svg width="158" height="65" viewBox="0 0 158 65" fill="none" xmlns="http://www.w3.org/2000/svg">
<path d="M132.486 14.8268L148.405 28.687C151.553 31.4262 153.697 34.9168 154.567 38.7173C155.436 42.5178 154.991 46.4574 153.289 50.0378C151.586 53.6182 148.702 56.6785 145.002 58.8317C141.301 60.9849 136.951 62.1342 132.5 62.1342C128.049 62.1342 123.699 60.9849 119.998 58.8317C116.298 56.6785 113.414 53.6182 111.711 50.0378C110.009 46.4574 109.564 42.5178 110.433 38.7173C111.303 34.9168 113.447 31.4262 116.595 28.687L132.486 14.8268Z" stroke="black" stroke-width="5" stroke-linecap="round" stroke-linejoin="round"/>
<path d="M132.486 3L148.405 16.5936C151.553 19.2801 153.697 22.7036 154.567 26.431C155.436 30.1584 154.991 34.0223 153.289 37.5338C151.586 41.0454 148.702 44.0469 145.002 46.1586C141.301 48.2704 136.951 49.3976 132.5 49.3976C128.049 49.3976 123.699 48.2704 119.998 46.1586C116.298 44.0469 113.414 41.0454 111.711 37.5338C110.009 34.0223 109.564 30.1584 110.433 26.431C111.303 22.7036 113.447 19.2801 116.595 16.5936L132.486 3Z" stroke="black" stroke-width="5" stroke-linecap="round" stroke-linejoin="round"/>
<path d="M3.168 30.668C3.168 31.124 3.144 31.592 3.096 32.072C3.072 32.552 3.036 32.984 2.988 33.368H3.204C3.612 32.696 4.128 32.144 4.752 31.712C5.376 31.28 6.072 30.956 6.84 30.74C7.608 30.5 8.4 30.38 9.216 30.38C10.776 30.38 12.072 30.632 13.104 31.136C14.16 31.616 14.952 32.372 15.48 33.404C16.008 34.436 16.272 35.78 16.272 37.436V50H13.14V37.652C13.14 36.092 12.792 34.928 12.096 34.16C11.4 33.392 10.308 33.008 8.82 33.008C7.38 33.008 6.252 33.284 5.436 33.836C4.62 34.364 4.032 35.156 3.672 36.212C3.336 37.244 3.168 38.516 3.168 40.028V50H0V22.64H3.168V30.668Z" fill="black"/>
<path d="M29.7059 30.344C31.3619 30.344 32.7779 30.704 33.9539 31.424C35.1539 32.144 36.0659 33.164 36.6899 34.484C37.3379 35.78 37.6619 37.304 37.6619 39.056V40.964H24.4499C24.4979 43.148 25.0499 44.816 26.1059 45.968C27.1859 47.096 28.6859 47.66 30.6059 47.66C31.8299 47.66 32.9099 47.552 33.8459 47.336C34.8059 47.096 35.7899 46.76 36.7979 46.328V49.1C35.8139 49.532 34.8419 49.844 33.8819 50.036C32.9219 50.252 31.7819 50.36 30.4619 50.36C28.6379 50.36 27.0179 49.988 25.6019 49.244C24.2099 48.5 23.1179 47.396 22.3259 45.932C21.5579 44.444 21.1739 42.632 21.1739 40.496C21.1739 38.384 21.5219 36.572 22.2179 35.06C22.9379 33.548 23.9339 32.384 25.2059 31.568C26.5019 30.752 28.0019 30.344 29.7059 30.344ZM29.6699 32.936C28.1579 32.936 26.9579 33.428 26.0699 34.412C25.2059 35.372 24.6899 36.716 24.5219 38.444H34.3499C34.3499 37.34 34.1819 36.38 33.8459 35.564C33.5099 34.748 32.9939 34.112 32.2979 33.656C31.6259 33.176 30.7499 32.936 29.6699 32.936Z" fill="black"/>
<path d="M45.7422 50H42.5742V22.64H45.7422V50Z" fill="black"/>
<path d="M55.0235 30.704V50H51.8555V30.704H55.0235ZM53.4755 23.468C53.9555 23.468 54.3755 23.636 54.7355 23.972C55.1195 24.284 55.3115 24.788 55.3115 25.484C55.3115 26.156 55.1195 26.66 54.7355 26.996C54.3755 27.332 53.9555 27.5 53.4755 27.5C52.9475 27.5 52.5035 27.332 52.1435 26.996C51.7835 26.66 51.6035 26.156 51.6035 25.484C51.6035 24.788 51.7835 24.284 52.1435 23.972C52.5035 23.636 52.9475 23.468 53.4755 23.468Z" fill="black"/>
<path d="M77.9127 40.316C77.9127 41.924 77.6967 43.352 77.2647 44.6C76.8567 45.824 76.2567 46.868 75.4647 47.732C74.6967 48.596 73.7487 49.256 72.6207 49.712C71.5167 50.144 70.2807 50.36 68.9127 50.36C67.6407 50.36 66.4647 50.144 65.3847 49.712C64.3047 49.256 63.3687 48.596 62.5767 47.732C61.7847 46.868 61.1607 45.824 60.7047 44.6C60.2727 43.352 60.0567 41.924 60.0567 40.316C60.0567 38.18 60.4167 36.38 61.1367 34.916C61.8567 33.428 62.8887 32.3 64.2327 31.532C65.5767 30.74 67.1727 30.344 69.0207 30.344C70.7727 30.344 72.3087 30.74 73.6287 31.532C74.9727 32.3 76.0167 33.428 76.7607 34.916C77.5287 36.38 77.9127 38.18 77.9127 40.316ZM63.3327 40.316C63.3327 41.828 63.5247 43.148 63.9087 44.276C64.3167 45.38 64.9407 46.232 65.7807 46.832C66.6207 47.432 67.6887 47.732 68.9847 47.732C70.2807 47.732 71.3487 47.432 72.1887 46.832C73.0287 46.232 73.6407 45.38 74.0247 44.276C74.4327 43.148 74.6367 41.828 74.6367 40.316C74.6367 38.78 74.4327 37.472 74.0247 36.392C73.6167 35.312 72.9927 34.484 72.1527 33.908C71.3367 33.308 70.2687 33.008 68.9487 33.008C66.9807 33.008 65.5527 33.656 64.6647 34.952C63.7767 36.248 63.3327 38.036 63.3327 40.316Z" fill="black"/>
<path d="M95.4976 44.672C95.4976 45.92 95.1856 46.964 94.5616 47.804C93.9376 48.644 93.0496 49.28 91.8976 49.712C90.7456 50.144 89.3776 50.36 87.7936 50.36C86.4496 50.36 85.2856 50.252 84.3016 50.036C83.3416 49.82 82.4896 49.52 81.7456 49.136V46.256C82.5136 46.64 83.4376 47 84.5176 47.336C85.6216 47.648 86.7376 47.804 87.8656 47.804C89.4736 47.804 90.6376 47.552 91.3576 47.048C92.0776 46.52 92.4376 45.824 92.4376 44.96C92.4376 44.48 92.3056 44.048 92.0416 43.664C91.7776 43.28 91.2976 42.896 90.6016 42.512C89.9296 42.128 88.9576 41.696 87.6856 41.216C86.4376 40.736 85.3696 40.256 84.4816 39.776C83.5936 39.296 82.9096 38.72 82.4296 38.048C81.9496 37.376 81.7096 36.512 81.7096 35.456C81.7096 33.824 82.3696 32.564 83.6896 31.676C85.0336 30.788 86.7856 30.344 88.9456 30.344C90.1216 30.344 91.2136 30.464 92.2216 30.704C93.2536 30.92 94.2136 31.232 95.1016 31.64L94.0216 34.16C93.4936 33.92 92.9296 33.716 92.3296 33.548C91.7536 33.356 91.1656 33.212 90.5656 33.116C89.9656 32.996 89.3536 32.936 88.7296 32.936C87.4336 32.936 86.4376 33.152 85.7416 33.584C85.0696 33.992 84.7336 34.556 84.7336 35.276C84.7336 35.804 84.8896 36.26 85.2016 36.644C85.5136 37.004 86.0296 37.364 86.7496 37.724C87.4936 38.06 88.4776 38.468 89.7016 38.948C90.9256 39.404 91.9696 39.872 92.8336 40.352C93.6976 40.832 94.3576 41.42 94.8136 42.116C95.2696 42.788 95.4976 43.64 95.4976 44.672Z" fill="black"/>
</svg>
