<svg width="209" height="59" viewBox="0 0 209 59" fill="none" xmlns="http://www.w3.org/2000/svg">
<path d="M207 28.0797H191.6L180.05 54.1593L156.95 2L145.4 28.0797H130" stroke="black" stroke-width="4" stroke-linecap="round" stroke-linejoin="round"/>
<path d="M8.028 36.62L7.884 37.376C6.756 37.376 6.036 37.52 5.724 37.808L8.712 52.892L16.488 38.024C16.32 37.592 15.612 37.376 14.364 37.376L14.508 36.62H20.412L20.268 37.376C18.972 37.376 18.216 37.568 18 37.952L7.632 57.68H5.904L2.196 38.132C2.076 37.628 1.344 37.376 0 37.376L0.144 36.62H8.028Z" fill="black"/>
<path d="M26.6029 36.764C26.6029 37.412 26.3749 37.976 25.9189 38.456C25.4869 38.936 24.9589 39.176 24.3349 39.176C23.8549 39.176 23.4589 39.02 23.1469 38.708C22.8349 38.372 22.6789 37.952 22.6789 37.448C22.6789 36.8 22.8949 36.236 23.3269 35.756C23.7589 35.252 24.2869 35 24.9109 35C25.3909 35 25.7869 35.168 26.0989 35.504C26.4349 35.84 26.6029 36.26 26.6029 36.764ZM21.9949 44.036C21.7789 44.012 21.5029 43.988 21.1669 43.964C20.8309 43.94 20.5549 43.916 20.3389 43.892C20.1229 43.868 19.9309 43.856 19.7629 43.856L19.9069 43.028C20.3629 43.028 21.2989 42.776 22.7149 42.272C24.1309 41.744 25.1149 41.48 25.6669 41.48L22.9669 57.68H19.7269L21.9949 44.036Z" fill="black"/>
<path d="M41.1168 42.2L41.9088 37.556C40.4208 37.436 39.6648 37.376 39.6408 37.376L39.7848 36.548C40.2408 36.548 41.1768 36.296 42.5928 35.792C44.0088 35.264 44.9928 35 45.5448 35L42.4128 53.864C42.3648 54.248 42.3408 54.512 42.3408 54.656C42.3408 55.352 42.4968 55.892 42.8088 56.276C43.1448 56.66 43.6008 56.852 44.1768 56.852L44.0328 57.68C41.5368 57.68 39.9888 57.224 39.3888 56.312C37.9968 57.464 36.2448 58.04 34.1328 58.04C33.4608 58.04 32.7888 57.932 32.1168 57.716C31.4448 57.524 30.7848 57.2 30.1368 56.744C29.5128 56.288 28.9968 55.628 28.5888 54.764C28.2048 53.9 28.0128 52.88 28.0128 51.704C28.0128 48.488 28.9488 45.956 30.8208 44.108C32.7168 42.26 35.0208 41.336 37.7328 41.336C39.1008 41.336 40.2288 41.624 41.1168 42.2ZM39.1008 55.484C39.0528 55.244 39.0288 55.04 39.0288 54.872C39.0288 54.728 39.0528 54.512 39.1008 54.224L40.9368 43.352C40.1208 42.824 39.0528 42.56 37.7328 42.56C36.3168 42.56 34.9248 43.352 33.5568 44.936C32.2128 46.496 31.5408 48.488 31.5408 50.912C31.5408 52.328 31.8288 53.672 32.4048 54.944C33.0048 56.192 33.7728 56.816 34.7088 56.816C36.4608 56.816 37.9248 56.372 39.1008 55.484Z" fill="black"/>
<path d="M52.099 45.584C52.099 46.112 51.919 46.52 51.559 46.808C51.199 47.096 50.767 47.24 50.263 47.24C49.879 47.24 49.567 47.12 49.327 46.88C49.087 46.616 48.967 46.28 48.967 45.872C48.967 44.48 49.579 43.4 50.803 42.632C52.051 41.864 53.647 41.48 55.591 41.48C57.511 41.48 58.927 41.912 59.839 42.776C60.751 43.616 61.207 44.744 61.207 46.16C61.207 46.448 61.159 46.904 61.063 47.528L60.019 53.864C59.971 54.248 59.947 54.512 59.947 54.656C59.947 55.352 60.103 55.892 60.415 56.276C60.751 56.66 61.207 56.852 61.783 56.852L61.639 57.68C59.263 57.68 57.739 57.236 57.067 56.348C55.387 57.476 53.467 58.04 51.307 58.04C48.139 58.04 46.555 56.924 46.555 54.692C46.555 54.068 46.675 53.504 46.915 53C47.179 52.472 47.551 52.04 48.031 51.704C48.511 51.344 49.015 51.032 49.543 50.768C50.095 50.504 50.743 50.276 51.487 50.084C52.231 49.868 52.915 49.688 53.539 49.544C54.163 49.4 54.871 49.244 55.663 49.076C56.479 48.908 57.139 48.752 57.643 48.608C57.811 47.432 57.895 46.556 57.895 45.98C57.895 44.948 57.631 44.156 57.103 43.604C56.575 43.052 55.879 42.776 55.015 42.776C52.879 42.776 51.559 43.352 51.055 44.504C51.751 44.504 52.099 44.864 52.099 45.584ZM57.499 49.4C57.187 49.496 56.647 49.64 55.879 49.832C55.135 50.024 54.547 50.192 54.115 50.336C53.707 50.456 53.191 50.66 52.567 50.948C51.967 51.212 51.499 51.5 51.163 51.812C50.827 52.124 50.527 52.532 50.263 53.036C50.023 53.54 49.903 54.116 49.903 54.764C49.903 56.132 50.647 56.816 52.135 56.816C53.791 56.816 55.315 56.408 56.707 55.592C56.659 55.352 56.635 55.148 56.635 54.98C56.635 54.812 56.659 54.56 56.707 54.224L57.499 49.4Z" fill="black"/>
<path d="M63.7782 57.68L63.9222 56.924C65.2422 56.924 66.0342 56.684 66.2982 56.204L69.3222 38.096C69.1782 37.616 68.4582 37.376 67.1622 37.376L67.3062 36.62H75.1542L75.0102 37.376C73.6902 37.376 72.8982 37.616 72.6342 38.096L71.3022 46.124H80.5182L81.8502 38.096C81.7062 37.616 80.9862 37.376 79.6902 37.376L79.8342 36.62H87.6822L87.5382 37.376C86.2182 37.376 85.4262 37.616 85.1622 38.096L82.1382 56.204C82.2822 56.684 83.0022 56.924 84.2982 56.924L84.1542 57.68H76.3062L76.4502 56.924C77.7702 56.924 78.5622 56.684 78.8262 56.204L80.3022 47.348H71.0862L69.6102 56.204C69.7542 56.684 70.4742 56.924 71.7702 56.924L71.6262 57.68H63.7782Z" fill="black"/>
<path d="M103.188 46.304C103.188 47.048 102.876 47.66 102.252 48.14C101.652 48.596 100.332 48.968 98.2921 49.256L91.3441 50.192C91.3441 51.992 91.7521 53.528 92.5681 54.8C93.4081 56.048 94.4641 56.672 95.7361 56.672C97.8481 56.672 99.6601 55.88 101.172 54.296L101.964 54.728C101.076 55.856 100.032 56.696 98.8321 57.248C97.6321 57.776 96.1081 58.04 94.2601 58.04C92.5081 58.04 90.9841 57.524 89.6881 56.492C88.4161 55.46 87.7801 53.756 87.7801 51.38C87.7801 48.524 88.5721 46.16 90.1561 44.288C91.7401 42.416 93.9121 41.48 96.6721 41.48C98.9041 41.48 100.548 41.984 101.604 42.992C102.66 43.976 103.188 45.08 103.188 46.304ZM91.4161 49.076L96.7801 48.356C98.8921 48.092 99.9481 47.24 99.9481 45.8C99.9481 44.984 99.6601 44.24 99.0841 43.568C98.5321 42.896 97.6201 42.56 96.3481 42.56C95.3641 42.56 94.3681 43.172 93.3601 44.396C92.3761 45.62 91.7281 47.18 91.4161 49.076Z" fill="black"/>
<path d="M110.037 45.584C110.037 46.112 109.857 46.52 109.497 46.808C109.137 47.096 108.705 47.24 108.201 47.24C107.817 47.24 107.505 47.12 107.265 46.88C107.025 46.616 106.905 46.28 106.905 45.872C106.905 44.48 107.517 43.4 108.741 42.632C109.989 41.864 111.585 41.48 113.529 41.48C115.449 41.48 116.865 41.912 117.777 42.776C118.689 43.616 119.145 44.744 119.145 46.16C119.145 46.448 119.097 46.904 119.001 47.528L117.957 53.864C117.909 54.248 117.885 54.512 117.885 54.656C117.885 55.352 118.041 55.892 118.353 56.276C118.689 56.66 119.145 56.852 119.721 56.852L119.577 57.68C117.201 57.68 115.677 57.236 115.005 56.348C113.325 57.476 111.405 58.04 109.245 58.04C106.077 58.04 104.493 56.924 104.493 54.692C104.493 54.068 104.613 53.504 104.853 53C105.117 52.472 105.489 52.04 105.969 51.704C106.449 51.344 106.953 51.032 107.481 50.768C108.033 50.504 108.681 50.276 109.425 50.084C110.169 49.868 110.853 49.688 111.477 49.544C112.101 49.4 112.809 49.244 113.601 49.076C114.417 48.908 115.077 48.752 115.581 48.608C115.749 47.432 115.833 46.556 115.833 45.98C115.833 44.948 115.569 44.156 115.041 43.604C114.513 43.052 113.817 42.776 112.953 42.776C110.817 42.776 109.497 43.352 108.993 44.504C109.689 44.504 110.037 44.864 110.037 45.584ZM115.437 49.4C115.125 49.496 114.585 49.64 113.817 49.832C113.073 50.024 112.485 50.192 112.053 50.336C111.645 50.456 111.129 50.66 110.505 50.948C109.905 51.212 109.437 51.5 109.101 51.812C108.765 52.124 108.465 52.532 108.201 53.036C107.961 53.54 107.841 54.116 107.841 54.764C107.841 56.132 108.585 56.816 110.073 56.816C111.729 56.816 113.253 56.408 114.645 55.592C114.597 55.352 114.573 55.148 114.573 54.98C114.573 54.812 114.597 54.56 114.645 54.224L115.437 49.4Z" fill="black"/>
<path d="M125.964 37.556C124.476 37.436 123.72 37.376 123.696 37.376L123.84 36.548C124.296 36.548 125.232 36.296 126.648 35.792C128.064 35.264 129.048 35 129.6 35L126.468 53.864C126.42 54.248 126.396 54.512 126.396 54.656C126.396 55.352 126.552 55.892 126.864 56.276C127.2 56.66 127.656 56.852 128.232 56.852L128.088 57.68C126.408 57.68 125.148 57.464 124.308 57.032C123.492 56.6 123.084 55.904 123.084 54.944C123.084 54.8 123.108 54.56 123.156 54.224L125.964 37.556Z" fill="black"/>
<path d="M138.788 36.62L137.924 41.84H141.02L140.84 42.92H137.744L135.8 54.368C135.752 54.752 135.728 55.028 135.728 55.196C135.728 56.18 136.256 56.672 137.312 56.672C137.744 56.672 138.212 56.468 138.716 56.06C139.244 55.628 139.652 55.04 139.94 54.296L140.732 54.728C139.844 56.936 138.212 58.04 135.836 58.04C133.484 58.04 132.308 57.056 132.308 55.088C132.308 54.776 132.344 54.44 132.416 54.08L134.288 42.92H131.768L131.948 41.84C133.34 41.84 134.552 41.324 135.584 40.292C136.64 39.236 137.276 38.012 137.492 36.62H138.788Z" fill="black"/>
<path d="M157.724 53.864C157.676 54.248 157.652 54.512 157.652 54.656C157.652 55.352 157.808 55.892 158.12 56.276C158.456 56.66 158.912 56.852 159.488 56.852L159.344 57.68C157.664 57.68 156.404 57.464 155.564 57.032C154.748 56.6 154.34 55.904 154.34 54.944C154.34 54.8 154.364 54.56 154.412 54.224L155.744 46.196C155.816 45.836 155.852 45.5 155.852 45.188C155.852 43.532 154.916 42.704 153.044 42.704C151.412 42.704 149.816 44.12 148.256 46.952L146.456 57.68H143.216L146.6 37.556C145.112 37.436 144.356 37.376 144.332 37.376L144.476 36.548C144.932 36.548 145.868 36.296 147.284 35.792C148.7 35.264 149.684 35 150.236 35L148.688 44.36C150.128 42.44 151.712 41.48 153.44 41.48C155.432 41.48 156.872 41.756 157.76 42.308C158.648 42.86 159.092 43.784 159.092 45.08C159.092 45.32 159.044 45.776 158.948 46.448L157.724 53.864Z" fill="black"/>
</svg>
