<svg width="190" height="46" viewBox="0 0 190 46" fill="none" xmlns="http://www.w3.org/2000/svg">
<path d="M143 3H187" stroke="black" stroke-width="5" stroke-linecap="round" stroke-linejoin="round"/>
<path d="M148 8.45856V23.1546C148 26.4955 149.738 29.6995 152.833 32.0618C155.927 34.4241 160.124 35.7512 164.5 35.7512C168.876 35.7512 173.073 34.4241 176.167 32.0618C179.262 29.6995 181 26.4955 181 23.1546V8.45856" stroke="black" stroke-width="5" stroke-linecap="round" stroke-linejoin="round"/>
<path d="M143 43.0293H186" stroke="black" stroke-width="5" stroke-linecap="round" stroke-linejoin="round"/>
<path d="M3.312 11.768V32.108H0V5.89998H4.104L12.852 27.356L21.456 5.89998H25.56V32.108H22.104V11.768L14.472 31.1H11.304L3.312 11.768Z" fill="black"/>
<path d="M30.6028 10.364V6.83598H34.2028V10.364H30.6028ZM30.8548 32.108V13.244H34.1308V32.108H30.8548Z" fill="black"/>
<path d="M46.5424 32.54C43.9984 32.54 42.0184 31.592 40.6024 29.696C39.2104 27.776 38.5144 25.316 38.5144 22.316C38.5144 19.316 39.2104 16.976 40.6024 15.296C42.0184 13.592 43.9984 12.74 46.5424 12.74C48.6784 12.74 50.5144 13.652 52.0504 15.476V5.35999H55.2544V32.108H52.0504V29.66C50.9224 31.58 49.0864 32.54 46.5424 32.54ZM52.0504 21.236C51.8584 17.732 50.1424 15.98 46.9024 15.98C45.3664 15.98 44.1544 16.532 43.2664 17.636C42.3544 18.764 41.8744 20.42 41.8264 22.604C41.8504 24.596 42.2464 26.204 43.0144 27.428C43.8064 28.652 45.0544 29.264 46.7584 29.264C48.4864 29.264 49.7584 28.808 50.5744 27.896C51.3904 26.984 51.8824 25.592 52.0504 23.72V21.236Z" fill="black"/>
<path d="M59.2031 5.89998H62.6951V29.336H76.8071V32H59.2031V5.89998Z" fill="black"/>
<path d="M81.1223 10.364V6.83598H84.7223V10.364H81.1223ZM81.3743 32.108V13.244H84.6503V32.108H81.3743Z" fill="black"/>
<path d="M102.714 32.108V20.516C102.714 17.3 101.382 15.692 98.7179 15.692C96.7979 15.692 95.3219 16.292 94.2899 17.492C93.2339 18.692 92.7059 20.468 92.7059 22.82V32.108H89.3579V12.704H92.7059V17.132C93.2339 15.74 94.0979 14.648 95.2979 13.856C96.4739 13.04 97.6379 12.632 98.7899 12.632C103.638 12.656 106.062 14.972 106.062 19.58V32.108H102.714Z" fill="black"/>
<path d="M125.695 23.9H112.771C112.963 25.892 113.527 27.296 114.463 28.112C115.423 28.952 116.707 29.372 118.315 29.372C121.171 29.372 123.451 28.616 125.155 27.104V30.56C123.187 31.808 120.895 32.432 118.279 32.432C115.663 32.432 113.551 31.52 111.943 29.696C110.311 27.848 109.495 25.52 109.495 22.712C109.495 19.928 110.323 17.6 111.979 15.728C113.635 13.856 115.759 12.92 118.351 12.92C119.767 12.92 120.991 13.196 122.023 13.748C124.471 15.212 125.695 18.596 125.695 23.9ZM118.315 16.124H118.243C115.027 16.124 113.203 17.768 112.771 21.056H122.887C122.767 19.352 122.371 18.104 121.699 17.312C121.003 16.52 119.875 16.124 118.315 16.124Z" fill="black"/>
</svg>
