<svg width="283" height="52" viewBox="0 0 283 52" fill="none" xmlns="http://www.w3.org/2000/svg">
<path d="M213 25.3927C213 25.3927 232.361 14.3198 247 21.32C261.639 28.3202 281 25.3927 281 25.3927" stroke="black" stroke-width="4" stroke-linecap="round"/>
<path d="M213 32.3927C213 32.3927 232.361 21.3198 247 28.32C261.639 35.3202 281 32.3927 281 32.3927" stroke="black" stroke-width="4" stroke-linecap="round"/>
<path d="M213 39.3927C213 39.3927 232.361 28.3198 247 35.32C261.639 42.3202 281 39.3927 281 39.3927" stroke="black" stroke-width="4" stroke-linecap="round"/>
<ellipse cx="248.5" cy="25.5" rx="26.5" ry="23.5" stroke="black" stroke-width="3"/>
<path d="M18.9375 42C18.9375 41.4219 18.8516 40.9062 18.6797 40.4531C18.5078 39.9844 18.1953 39.5547 17.7422 39.1641C17.2891 38.7734 16.6484 38.3828 15.8203 37.9922C14.9922 37.5859 13.9062 37.1719 12.5625 36.75C11.0312 36.25 9.57031 35.6875 8.17969 35.0625C6.80469 34.4219 5.57812 33.6797 4.5 32.8359C3.42188 31.9922 2.57031 31.0078 1.94531 29.8828C1.33594 28.7578 1.03125 27.4453 1.03125 25.9453C1.03125 24.4922 1.35156 23.1797 1.99219 22.0078C2.63281 20.8359 3.53125 19.8359 4.6875 19.0078C5.84375 18.1641 7.20312 17.5234 8.76562 17.0859C10.3281 16.6328 12.0469 16.4062 13.9219 16.4062C16.4219 16.4062 18.6172 16.8516 20.5078 17.7422C22.4141 18.6172 23.8984 19.8516 24.9609 21.4453C26.0234 23.0234 26.5547 24.8594 26.5547 26.9531H18.9609C18.9609 26.0312 18.7656 25.2188 18.375 24.5156C18 23.7969 17.4219 23.2344 16.6406 22.8281C15.875 22.4219 14.9141 22.2188 13.7578 22.2188C12.6328 22.2188 11.6875 22.3906 10.9219 22.7344C10.1719 23.0625 9.60156 23.5156 9.21094 24.0938C8.83594 24.6719 8.64844 25.3047 8.64844 25.9922C8.64844 26.5391 8.78906 27.0391 9.07031 27.4922C9.36719 27.9297 9.78906 28.3438 10.3359 28.7344C10.8984 29.1094 11.5859 29.4688 12.3984 29.8125C13.2109 30.1562 14.1406 30.4844 15.1875 30.7969C17.0156 31.375 18.6328 32.0156 20.0391 32.7188C21.4609 33.4219 22.6562 34.2188 23.625 35.1094C24.5938 36 25.3203 37.0078 25.8047 38.1328C26.3047 39.2578 26.5547 40.5312 26.5547 41.9531C26.5547 43.4688 26.2578 44.8125 25.6641 45.9844C25.0859 47.1562 24.2422 48.1562 23.1328 48.9844C22.0391 49.7969 20.7266 50.4141 19.1953 50.8359C17.6641 51.2578 15.9531 51.4688 14.0625 51.4688C12.3438 51.4688 10.6484 51.25 8.97656 50.8125C7.30469 50.3594 5.78906 49.6719 4.42969 48.75C3.08594 47.8281 2.00781 46.6562 1.19531 45.2344C0.398438 43.7969 0 42.0938 0 40.125H7.64062C7.64062 41.1562 7.78906 42.0312 8.08594 42.75C8.38281 43.4531 8.80469 44.0234 9.35156 44.4609C9.91406 44.8984 10.5938 45.2109 11.3906 45.3984C12.1875 45.5859 13.0781 45.6797 14.0625 45.6797C15.2031 45.6797 16.125 45.5234 16.8281 45.2109C17.5469 44.8828 18.0781 44.4375 18.4219 43.875C18.7656 43.3125 18.9375 42.6875 18.9375 42Z" fill="black"/>
<path d="M49.7344 16.875H57.375V39.2812C57.375 41.9375 56.8125 44.1719 55.6875 45.9844C54.5781 47.7969 53.0312 49.1641 51.0469 50.0859C49.0625 51.0078 46.7656 51.4688 44.1562 51.4688C41.5312 51.4688 39.2188 51.0078 37.2188 50.0859C35.2344 49.1641 33.6719 47.7969 32.5312 45.9844C31.4062 44.1719 30.8438 41.9375 30.8438 39.2812V16.875H38.5078V39.2812C38.5078 40.75 38.7266 41.9531 39.1641 42.8906C39.6172 43.8125 40.2656 44.4922 41.1094 44.9297C41.9531 45.3516 42.9688 45.5625 44.1562 45.5625C45.3438 45.5625 46.3516 45.3516 47.1797 44.9297C48.0234 44.4922 48.6562 43.8125 49.0781 42.8906C49.5156 41.9531 49.7344 40.75 49.7344 39.2812V16.875Z" fill="black"/>
<path d="M90.9844 16.875V51H83.3672L70.4766 28.9453V51H62.8359V16.875H70.4766L83.3906 38.9297V16.875H90.9844Z" fill="black"/>
<path d="M107.438 51H99.9375L99.9844 45.0938H107.438C109.141 45.0938 110.578 44.7031 111.75 43.9219C112.922 43.125 113.812 41.9531 114.422 40.4062C115.031 38.8438 115.336 36.9453 115.336 34.7109V33.1406C115.336 31.4531 115.164 29.9688 114.82 28.6875C114.477 27.3906 113.969 26.3047 113.297 25.4297C112.625 24.5547 111.789 23.8984 110.789 23.4609C109.805 23.0234 108.672 22.8047 107.391 22.8047H99.7969V16.875H107.391C109.703 16.875 111.812 17.2656 113.719 18.0469C115.641 18.8281 117.297 19.9453 118.688 21.3984C120.094 22.8516 121.18 24.5703 121.945 26.5547C122.711 28.5391 123.094 30.75 123.094 33.1875V34.7109C123.094 37.1328 122.711 39.3438 121.945 41.3438C121.18 43.3281 120.094 45.0469 118.688 46.5C117.297 47.9375 115.648 49.0469 113.742 49.8281C111.836 50.6094 109.734 51 107.438 51ZM104.273 16.875V51H96.6328V16.875H104.273Z" fill="black"/>
<path d="M135.891 16.875V51H128.273V16.875H135.891Z" fill="black"/>
<path d="M156.656 23.3672L147.844 51H139.688L152.32 16.875H157.477L156.656 23.3672ZM163.969 51L155.133 23.3672L154.219 16.875H159.445L172.125 51H163.969ZM163.594 38.2969V44.2031H145.805V38.2969H163.594Z" fill="black"/>
<path d="M197.227 45.0938V51H180V45.0938H197.227ZM182.602 16.875V51H174.961V16.875H182.602Z" fill="black"/>
</svg>
