<svg width="692" height="230" viewBox="0 0 692 230" fill="none" xmlns="http://www.w3.org/2000/svg">
<g filter="url(#filter0_d_2_130)">
<circle cx="102.5" cy="123.5" r="95.5" stroke="black" stroke-width="6" shape-rendering="crispEdges"/>
</g>
<g filter="url(#filter1_d_2_130)">
<circle cx="568" cy="35" r="32" stroke="#CD0000" stroke-width="6" shape-rendering="crispEdges"/>
</g>
<g filter="url(#filter2_d_2_130)">
<circle cx="653" cy="97" r="32" stroke="#038B29" stroke-width="6" shape-rendering="crispEdges"/>
</g>
<g filter="url(#filter3_d_2_130)">
<circle cx="591" cy="187" r="32" stroke="#038B29" stroke-width="6" shape-rendering="crispEdges"/>
</g>
<path d="M484.246 35.8359C484.707 35.148 484.524 34.2161 483.836 33.7545L472.626 26.2314C471.938 25.7698 471.007 25.9532 470.545 26.6411C470.083 27.3289 470.267 28.2608 470.955 28.7224L480.919 35.4096L474.231 45.3736C473.77 46.0615 473.953 46.9934 474.641 47.455C475.329 47.9167 476.261 47.7333 476.722 47.0454L484.246 35.8359ZM223.573 87.5827L483.29 36.4718L482.71 33.5282L222.994 84.6392L223.573 87.5827Z" fill="black"/>
<path d="M579.096 113.024C579.662 112.419 579.629 111.47 579.024 110.904L569.161 101.686C568.556 101.12 567.607 101.153 567.041 101.758C566.475 102.363 566.508 103.312 567.113 103.878L575.88 112.072L567.686 120.839C567.12 121.444 567.153 122.393 567.758 122.959C568.363 123.525 569.312 123.492 569.878 122.887L579.096 113.024ZM223.051 125.499L578.051 113.499L577.949 110.501L222.949 122.501L223.051 125.499Z" fill="black"/>
<path d="M533.971 188.143C534.603 187.606 534.679 186.66 534.143 186.029L525.4 175.742C524.863 175.111 523.916 175.034 523.285 175.571C522.654 176.107 522.577 177.054 523.114 177.685L530.886 186.829L521.742 194.6C521.111 195.137 521.034 196.084 521.571 196.715C522.107 197.346 523.054 197.423 523.685 196.886L533.971 188.143ZM223.162 163.384L532.879 188.495L533.121 185.505L223.404 160.394L223.162 163.384Z" fill="black"/>
<defs>
<filter id="filter0_d_2_130" x="0" y="25" width="205" height="205" filterUnits="userSpaceOnUse" color-interpolation-filters="sRGB">
<feFlood flood-opacity="0" result="BackgroundImageFix"/>
<feColorMatrix in="SourceAlpha" type="matrix" values="0 0 0 0 0 0 0 0 0 0 0 0 0 0 0 0 0 0 127 0" result="hardAlpha"/>
<feOffset dy="4"/>
<feGaussianBlur stdDeviation="2"/>
<feComposite in2="hardAlpha" operator="out"/>
<feColorMatrix type="matrix" values="0 0 0 0 0 0 0 0 0 0 0 0 0 0 0 0 0 0 0.25 0"/>
<feBlend mode="normal" in2="BackgroundImageFix" result="effect1_dropShadow_2_130"/>
<feBlend mode="normal" in="SourceGraphic" in2="effect1_dropShadow_2_130" result="shape"/>
</filter>
<filter id="filter1_d_2_130" x="529" y="0" width="78" height="78" filterUnits="userSpaceOnUse" color-interpolation-filters="sRGB">
<feFlood flood-opacity="0" result="BackgroundImageFix"/>
<feColorMatrix in="SourceAlpha" type="matrix" values="0 0 0 0 0 0 0 0 0 0 0 0 0 0 0 0 0 0 127 0" result="hardAlpha"/>
<feOffset dy="4"/>
<feGaussianBlur stdDeviation="2"/>
<feComposite in2="hardAlpha" operator="out"/>
<feColorMatrix type="matrix" values="0 0 0 0 0 0 0 0 0 0 0 0 0 0 0 0 0 0 0.25 0"/>
<feBlend mode="normal" in2="BackgroundImageFix" result="effect1_dropShadow_2_130"/>
<feBlend mode="normal" in="SourceGraphic" in2="effect1_dropShadow_2_130" result="shape"/>
</filter>
<filter id="filter2_d_2_130" x="614" y="62" width="78" height="78" filterUnits="userSpaceOnUse" color-interpolation-filters="sRGB">
<feFlood flood-opacity="0" result="BackgroundImageFix"/>
<feColorMatrix in="SourceAlpha" type="matrix" values="0 0 0 0 0 0 0 0 0 0 0 0 0 0 0 0 0 0 127 0" result="hardAlpha"/>
<feOffset dy="4"/>
<feGaussianBlur stdDeviation="2"/>
<feComposite in2="hardAlpha" operator="out"/>
<feColorMatrix type="matrix" values="0 0 0 0 0 0 0 0 0 0 0 0 0 0 0 0 0 0 0.25 0"/>
<feBlend mode="normal" in2="BackgroundImageFix" result="effect1_dropShadow_2_130"/>
<feBlend mode="normal" in="SourceGraphic" in2="effect1_dropShadow_2_130" result="shape"/>
</filter>
<filter id="filter3_d_2_130" x="552" y="152" width="78" height="78" filterUnits="userSpaceOnUse" color-interpolation-filters="sRGB">
<feFlood flood-opacity="0" result="BackgroundImageFix"/>
<feColorMatrix in="SourceAlpha" type="matrix" values="0 0 0 0 0 0 0 0 0 0 0 0 0 0 0 0 0 0 127 0" result="hardAlpha"/>
<feOffset dy="4"/>
<feGaussianBlur stdDeviation="2"/>
<feComposite in2="hardAlpha" operator="out"/>
<feColorMatrix type="matrix" values="0 0 0 0 0 0 0 0 0 0 0 0 0 0 0 0 0 0 0.25 0"/>
<feBlend mode="normal" in2="BackgroundImageFix" result="effect1_dropShadow_2_130"/>
<feBlend mode="normal" in="SourceGraphic" in2="effect1_dropShadow_2_130" result="shape"/>
</filter>
</defs>
</svg>
